{
  "accessors": [
    {
      "bufferView": 2,
      "componentType": 5126,
      "count": 4,
      "max": [
        0.9665738344192505,
        1.0,
        0.9693593382835388
      ],
      "min": [
        -0.9721448421478271,
        1.0,
        -0.9749658107757568
      ],
      "type": "VEC3"
    },
    {
      "bufferView": 2,
      "byteOffset": 48,
      "componentType": 5126,
      "count": 4,
      "max": [
        0.0,
        1.0,
        0.0
      ],
      "min": [
        0.0,
        1.0,
        0.0
      ],
      "type": "VEC3"
    },
    {
      "bufferView": 1,
      "componentType": 5126,
      "count": 4,
      "max": [
        0.871518075466156,
        0.746169924736023
      ],
      "min": [
        0.6291782855987549,
        0.503129243850708
      ],
      "type": "VEC2"
    },
    {
      "bufferView": 0,
      "componentType": 5125,
      "count": 6,
      "type": "SCALAR"
    },
    {
      "bufferView": 2,
      "byteOffset": 96,
      "componentType": 5126,
      "count": 33,
      "max": [
        1.0,
        1.0,
        1.0
      ],
      "min": [
        -1.0,
        -1.0,
        -1.0
      ],
      "type": "VEC3"
    },
    {
      "bufferView": 2,
      "byteOffset": 492,
      "componentType": 5126,
      "count": 33,
      "max": [
        0.0,
        1.0,
        -0.0
      ],
      "min": [
        0.0,
        -1.0,
        -0.0
      ],
      "type": "VEC3"
    },
    {
      "bufferView": 1,
      "byteOffset": 32,
      "componentType": 5126,
      "count": 33,
      "max": [
        0.875,
        0.75
      ],
      "min": [
        0.125,
        0.5
      ],
      "type": "VEC2"
    },
    {
      "bufferView": 0,
      "byteOffset": 24,
      "componentType": 5125,
      "count": 102,
      "type": "SCALAR"
    },
    {
      "bufferView": 2,
      "byteOffset": 888,
      "componentType": 5126,
      "count": 32,
      "max": [
        1.0,
        1.0,
        1.0
      ],
      "min": [
        -1.0,
        -1.0,
        -1.0
      ],
      "type": "VEC3"
    },
    {
      "bufferView": 2,
      "byteOffset": 1272,
      "componentType": 5126,
      "count": 32,
      "max": [
        1.0,
        0.0,
        1.0
      ],
      "min": [
        -1.0,
        0.0,
        -1.0
      ],
      "type": "VEC3"
    },
    {
      "bufferView": 1,
      "byteOffset": 296,
      "componentType": 5126,
      "count": 32,
      "max": [
        0.625,
        1.0
      ],
      "min": [
        0.3749999701976776,
        0.0
      ],
      "type": "VEC2"
    },
    {
      "bufferView": 0,
      "byteOffset": 432,
      "componentType": 5125,
      "count": 72,
      "type": "SCALAR"
    },
    {
      "bufferView": 2,
      "byteOffset": 1656,
      "componentType": 5126,
      "count": 61920,
      "max": [
        140.5218963623047,
        1.0,
        1.0
      ],
      "min": [
        -9.6781005859375,
        -1.0,
        -149.86221313476563
      ],
      "type": "VEC3"
    },
    {
      "bufferView": 2,
      "byteOffset": 744696,
      "componentType": 5126,
      "count": 61920,
      "max": [
        0.9238870739936829,
        1.0,
        0.9238829612731934
      ],
      "min": [
        -0.9238800406455994,
        -1.0,
        -0.9238829612731934
      ],
      "type": "VEC3"
    },
    {
      "bufferView": 1,
      "byteOffset": 552,
      "componentType": 5126,
      "count": 61920,
      "max": [
        1.0,
        1.0
      ],
      "min": [
        0.0,
        0.01000000536441803
      ],
      "type": "VEC2"
    },
    {
      "bufferView": 0,
      "byteOffset": 720,
      "componentType": 5125,
      "count": 108360,
      "type": "SCALAR"
    },
    {
      "bufferView": 2,
      "byteOffset": 1487736,
      "componentType": 5126,
      "count": 8976,
      "max": [
        1.0,
        1.0,
        1.0
      ],
      "min": [
        -1.0,
        -1.0,
        -1.0
      ],
      "type": "VEC3"
    },
    {
      "bufferView": 2,
      "byteOffset": 1595448,
      "componentType": 5126,
      "count": 8976,
      "max": [
        1.0,
        1.0,
        1.0
      ],
      "min": [
        -1.0,
        -1.0,
        -1.0
      ],
      "type": "VEC3"
    },
    {
      "bufferView": 1,
      "byteOffset": 495912,
      "componentType": 5126,
      "count": 8976,
      "max": [
        1.0524389743804932,
        9.55128002166748
      ],
      "min": [
        0.0,
        -8.536516189575195
      ],
      "type": "VEC2"
    },
    {
      "bufferView": 0,
      "byteOffset": 434160,
      "componentType": 5125,
      "count": 13860,
      "type": "SCALAR"
    },
    {
      "bufferView": 2,
      "byteOffset": 1703160,
      "componentType": 5126,
      "count": 15,
      "max": [
        1.1939232349395752,
        0.20416826009750366,
        1.0141563415527344
      ],
      "min": [
        -0.8660253882408142,
        -0.051228493452072144,
        -1.549135684967041
      ],
      "type": "VEC3"
    },
    {
      "bufferView": 2,
      "byteOffset": 1703340,
      "componentType": 5126,
      "count": 15,
      "max": [
        0.8350759744644165,
        0.9994281530380249,
        0.9377283453941345
      ],
      "min": [
        -0.9547699093818665,
        -0.26494842767715454,
        -0.48213136196136475
      ],
      "type": "VEC3"
    },
    {
      "bufferView": 1,
      "byteOffset": 567720,
      "componentType": 5126,
      "count": 15,
      "max": [
        0.0,
        0.0
      ],
      "min": [
        0.0,
        0.0
      ],
      "type": "VEC2"
    },
    {
      "bufferView": 0,
      "byteOffset": 489600,
      "componentType": 5125,
      "count": 21,
      "type": "SCALAR"
    }
  ],
  "asset": {
    "extras": {
      "author": "Temoor (https://sketchfab.com/Temooor)",
      "license": "CC-BY-4.0 (http://creativecommons.org/licenses/by/4.0/)",
      "source": "https://sketchfab.com/3d-models/amd-ryzen-5-3600-cpu-a765084a6afd41198cbd8921be8c66a5",
      "title": "amd ryzen 5 3600 cpu"
    },
    "generator": "Sketchfab-12.66.0",
    "version": "2.0"
  },
  "bufferViews": [
    {
      "buffer": 0,
      "byteLength": 489684,
      "name": "floatBufferViews",
      "target": 34963
    },
    {
      "buffer": 0,
      "byteLength": 567840,
      "byteOffset": 489684,
      "byteStride": 8,
      "name": "floatBufferViews",
      "target": 34962
    },
    {
      "buffer": 0,
      "byteLength": 1703520,
      "byteOffset": 1057524,
      "byteStride": 12,
      "name": "floatBufferViews",
      "target": 34962
    }
  ],
  "buffers": [
    {
      "byteLength": 2761044,
      "uri": "scene.bin"
    }
  ],
  "images": [
    {
      "uri": "textures/Material.001_baseColor.png"
    }
  ],
  "materials": [
    {
      "doubleSided": true,
      "name": "Material.002",
      "pbrMetallicRoughness": {
        "baseColorFactor": [
          0.00171609,
          0.0637209,
          0.030392,
          1.0
        ],
        "metallicFactor": 0.808824,
        "roughnessFactor": 0.5
      }
    },
    {
      "doubleSided": true,
      "name": "Material.003",
      "pbrMetallicRoughness": {
        "baseColorFactor": [
          0.00539998,
          0.748401,
          0.319007,
          1.0
        ],
        "roughnessFactor": 0.522059
      }
    },
    {
      "doubleSided": true,
      "name": "Material.005",
      "pbrMetallicRoughness": {
        "baseColorFactor": [
          0.342384,
          0.146736,
          0.0602523,
          1.0
        ],
        "roughnessFactor": 0.316176
      }
    },
    {
      "doubleSided": true,
      "name": "Material.004",
      "pbrMetallicRoughness": {
        "baseColorFactor": [
          0.259799,
          0.189324,
          0.0677903,
          1.0
        ]
      }
    },
    {
      "doubleSided": true,
      "name": "Material.001",
      "pbrMetallicRoughness": {
        "baseColorTexture": {
          "index": 0
        },
        "metallicFactor": 0.669118,
        "roughnessFactor": 0.213235
      }
    },
    {
      "doubleSided": true,
      "name": "Material",
      "pbrMetallicRoughness": {
        "baseColorFactor": [
          0.8,
          0.635796,
          0.0553329,
          1.0
        ],
        "metallicFactor": 0.0,
        "roughnessFactor": 0.286765
      }
    }
  ],
  "meshes": [
    {
      "name": "Object_0",
      "primitives": [
        {
          "attributes": {
            "NORMAL": 1,
            "POSITION": 0,
            "TEXCOORD_0": 2
          },
          "indices": 3,
          "material": 0,
          "mode": 4
        }
      ]
    },
    {
      "name": "Object_1",
      "primitives": [
        {
          "attributes": {
            "NORMAL": 5,
            "POSITION": 4,
            "TEXCOORD_0": 6
          },
          "indices": 7,
          "material": 1,
          "mode": 4
        }
      ]
    },
    {
      "name": "Object_2",
      "primitives": [
        {
          "attributes": {
            "NORMAL": 9,
            "POSITION": 8,
            "TEXCOORD_0": 10
          },
          "indices": 11,
          "material": 2,
          "mode": 4
        }
      ]
    },
    {
      "name": "Object_3",
      "primitives": [
        {
          "attributes": {
            "NORMAL": 13,
            "POSITION": 12,
            "TEXCOORD_0": 14
          },
          "indices": 15,
          "material": 3,
          "mode": 4
        }
      ]
    },
    {
      "name": "Object_4",
      "primitives": [
        {
          "attributes": {
            "NORMAL": 17,
            "POSITION": 16,
            "TEXCOORD_0": 18
          },
          "indices": 19,
          "material": 4,
          "mode": 4
        }
      ]
    },
    {
      "name": "Object_5",
      "primitives": [
        {
          "attributes": {
            "NORMAL": 21,
            "POSITION": 20,
            "TEXCOORD_0": 22
          },
          "indices": 23,
          "material": 5,
          "mode": 4
        }
      ]
    }
  ],
  "nodes": [
    {
      "children": [
        1
      ],
      "matrix": [
        1.0,
        0.0,
        0.0,
        0.0,
        0.0,
        2.220446049250313e-16,
        -1.0,
        0.0,
        0.0,
        1.0,
        2.220446049250313e-16,
        0.0,
        0.0,
        0.0,
        0.0,
        1.0
      ],
      "name": "Sketchfab_model"
    },
    {
      "children": [
        2
      ],
      "name": "root"
    },
    {
      "children": [
        3,
        7,
        9,
        11
      ],
      "matrix": [
        1.0,
        0.0,
        0.0,
        0.0,
        0.0,
        2.220446049250313e-16,
        1.0,
        0.0,
        0.0,
        -1.0,
        2.220446049250313e-16,
        0.0,
        0.0,
        0.0,
        0.0,
        1.0
      ],
      "name": "GLTF_SceneRootNode"
    },
    {
      "children": [
        4,
        5,
        6
      ],
      "matrix": [
        1.3658603429794312,
        0.0,
        0.0,
        0.0,
        0.0,
        0.045054007321596146,
        0.0,
        0.0,
        0.0,
        0.0,
        1.3658603429794312,
        0.0,
        -0.01968894712626934,
        0.0,
        0.17720051109790802,
        1.0
      ],
      "name": "Cube_0"
    },
    {
      "mesh": 0,
      "name": "Object_4"
    },
    {
      "mesh": 1,
      "name": "Object_5"
    },
    {
      "mesh": 2,
      "name": "Object_6"
    },
    {
      "children": [
        8
      ],
      "matrix": [
        0.016289522871375084,
        0.0,
        0.0,
        0.0,
        0.0,
        0.06846009194850922,
        0.0,
        0.0,
        0.0,
        0.0,
        0.016289522871375084,
        0.0,
        -1.0750510692596436,
        -0.09940425306558609,
        1.4108225107192993,
        1.0
      ],
      "name": "Cylinder.004_2"
    },
    {
      "mesh": 3,
      "name": "Object_8"
    },
    {
      "children": [
        10
      ],
      "matrix": [
        1.3004395961761475,
        0.0,
        0.0,
        0.0,
        0.0,
        0.07118083536624908,
        0.0,
        0.0,
        0.0,
        0.0,
        1.3004395961761475,
        0.0,
        -0.02658616378903389,
        0.09458862245082855,
        0.17470908164978027,
        1.0
      ],
      "name": "Cube.001_3"
    },
    {
      "mesh": 4,
      "name": "Object_10"
    },
    {
      "children": [
        12
      ],
      "matrix": [
        0.04165457652057522,
        0.0,
        -0.01116130790072012,
        0.0,
        0.0,
        0.043123990297317505,
        0.0,
        0.0,
        0.01116130790072012,
        0.0,
        0.04165457652057522,
        0.0,
        -1.3000903129577637,
        0.04025845229625702,
        1.4532420635223389,
        1.0
      ],
      "name": "Circle_5"
    },
    {
      "mesh": 5,
      "name": "Object_12"
    }
  ],
  "samplers": [
    {
      "magFilter": 9729,
      "minFilter": 9987,
      "wrapS": 10497,
      "wrapT": 10497
    }
  ],
  "scene": 0,
  "scenes": [
    {
      "name": "Sketchfab_Scene",
      "nodes": [
        0
      ]
    }
  ],
  "textures": [
    {
      "sampler": 0,
      "source": 0
    }
  ]
}
