{
  "accessors": [
    {
      "bufferView": 1,
      "componentType": 5126,
      "count": 65532,
      "max": [
        0.08050999790430069,
        0.08073999732732773,
        -0.02792000025510788
      ],
      "min": [
        -0.08099000155925751,
        -0.0715399980545044,
        -0.04766999930143356
      ],
      "type": "VEC3"
    },
    {
      "bufferView": 1,
      "byteOffset": 786384,
      "componentType": 5126,
      "count": 65532,
      "max": [
        0.9999935030937195,
        0.999775230884552,
        0.9999809861183167
      ],
      "min": [
        -0.9990091919898987,
        -0.9990445375442505,
        -0.9999900460243225
      ],
      "type": "VEC3"
    },
    {
      "bufferView": 0,
      "componentType": 5125,
      "count": 390537,
      "type": "SCALAR"
    },
    {
      "bufferView": 1,
      "byteOffset": 1572768,
      "componentType": 5126,
      "count": 39545,
      "max": [
        0.03742000088095665,
        0.07873000204563141,
        -0.02792000025510788
      ],
      "min": [
        -0.08036000281572342,
        -0.08077000081539154,
        -0.04766999930143356
      ],
      "type": "VEC3"
    },
    {
      "bufferView": 1,
      "byteOffset": 2047308,
      "componentType": 5126,
      "count": 39545,
      "max": [
        0.998225212097168,
        0.9999963641166687,
        0.9999808669090271
      ],
      "min": [
        -0.9999516606330872,
        -0.999994695186615,
        -0.9999900460243225
      ],
      "type": "VEC3"
    },
    {
      "bufferView": 0,
      "byteOffset": 1562148,
      "componentType": 5125,
      "count": 233079,
      "type": "SCALAR"
    },
    {
      "bufferView": 1,
      "byteOffset": 2521848,
      "componentType": 5126,
      "count": 258,
      "max": [
        0.025040000677108765,
        0.025040000677108765,
        -0.028449999168515205
      ],
      "min": [
        -0.025040000677108765,
        -0.025040000677108765,
        -0.041760001331567764
      ],
      "type": "VEC3"
    },
    {
      "bufferView": 1,
      "byteOffset": 2524944,
      "componentType": 5126,
      "count": 258,
      "max": [
        0.9272384643554688,
        0.9272384643554688,
        1.0
      ],
      "min": [
        -0.9272384643554688,
        -0.9272384643554688,
        -1.0
      ],
      "type": "VEC3"
    },
    {
      "bufferView": 0,
      "byteOffset": 2494464,
      "componentType": 5125,
      "count": 1344,
      "type": "SCALAR"
    },
    {
      "bufferView": 1,
      "byteOffset": 2528040,
      "componentType": 5126,
      "count": 19608,
      "max": [
        0.08574999868869781,
        0.08574999868869781,
        0.04788000136613846
      ],
      "min": [
        -0.08574999868869781,
        -0.08574999868869781,
        0.022779999300837517
      ],
      "type": "VEC3"
    },
    {
      "bufferView": 1,
      "byteOffset": 2763336,
      "componentType": 5126,
      "count": 19608,
      "max": [
        1.0,
        1.0,
        1.0
      ],
      "min": [
        -1.0,
        -1.0,
        -1.0
      ],
      "type": "VEC3"
    },
    {
      "bufferView": 0,
      "byteOffset": 2499840,
      "componentType": 5125,
      "count": 117696,
      "type": "SCALAR"
    },
    {
      "bufferView": 1,
      "byteOffset": 2998632,
      "componentType": 5126,
      "count": 4554,
      "max": [
        0.07000000029802322,
        0.07000000029802322,
        -0.026660000905394554
      ],
      "min": [
        -0.07000000029802322,
        -0.07000000029802322,
        -0.029160000383853912
      ],
      "type": "VEC3"
    },
    {
      "bufferView": 1,
      "byteOffset": 3053280,
      "componentType": 5126,
      "count": 4554,
      "max": [
        0.9951873421669006,
        0.9951873421669006,
        1.0
      ],
      "min": [
        -0.9951873421669006,
        -0.9951873421669006,
        -1.0
      ],
      "type": "VEC3"
    },
    {
      "bufferView": 0,
      "byteOffset": 2970624,
      "componentType": 5125,
      "count": 26880,
      "type": "SCALAR"
    }
  ],
  "asset": {
    "extras": {
      "author": "vldmr (https://sketchfab.com/vldmr)",
      "license": "CC-BY-NC-SA-4.0 (http://creativecommons.org/licenses/by-nc-sa/4.0/)",
      "source": "https://sketchfab.com/3d-models/pc-fan-ventilador-140mm-d98c18f4018a49eaa08067745cad8257",
      "title": "PC Fan Ventilador 140mm"
    },
    "generator": "Sketchfab-12.65.0",
    "version": "2.0"
  },
  "bufferViews": [
    {
      "buffer": 0,
      "byteLength": 3078144,
      "name": "floatBufferViews",
      "target": 34963
    },
    {
      "buffer": 0,
      "byteLength": 3107928,
      "byteOffset": 3078144,
      "byteStride": 12,
      "name": "floatBufferViews",
      "target": 34962
    }
  ],
  "buffers": [
    {
      "byteLength": 6186072,
      "uri": "scene.bin"
    }
  ],
  "materials": [
    {
      "doubleSided": true,
      "name": "Root",
      "pbrMetallicRoughness": {
        "baseColorFactor": [
          0.4,
          0.4,
          0.4,
          1.0
        ],
        "metallicFactor": 0.0,
        "roughnessFactor": 0.6
      }
    },
    {
      "doubleSided": true,
      "name": "Blued_Steel",
      "pbrMetallicRoughness": {
        "baseColorFactor": [
          0.04,
          0.04,
          0.04,
          1.0
        ],
        "metallicFactor": 0.0,
        "roughnessFactor": 0.6
      }
    },
    {
      "doubleSided": true,
      "name": "Material",
      "pbrMetallicRoughness": {
        "baseColorFactor": [
          0.0395178644912048,
          0.0395178644912048,
          0.0395178644912048,
          1.0
        ],
        "metallicFactor": 0.0,
        "roughnessFactor": 0.4168763550572425
      }
    },
    {
      "doubleSided": true,
      "name": "Material.001",
      "pbrMetallicRoughness": {
        "baseColorFactor": [
          0.4,
          0.4,
          0.4,
          1.0
        ],
        "metallicFactor": 0.0,
        "roughnessFactor": 0.20000000298023224
      }
    }
  ],
  "meshes": [
    {
      "name": "Plane_0",
      "primitives": [
        {
          "attributes": {
            "NORMAL": 1,
            "POSITION": 0
          },
          "indices": 2,
          "material": 3,
          "mode": 4
        }
      ]
    },
    {
      "name": "Plane_0",
      "primitives": [
        {
          "attributes": {
            "NORMAL": 4,
            "POSITION": 3
          },
          "indices": 5,
          "material": 3,
          "mode": 4
        }
      ]
    },
    {
      "name": "Circle_0",
      "primitives": [
        {
          "attributes": {
            "NORMAL": 7,
            "POSITION": 6
          },
          "indices": 8,
          "material": 0,
          "mode": 4
        }
      ]
    },
    {
      "name": "Plane.002_0",
      "primitives": [
        {
          "attributes": {
            "NORMAL": 10,
            "POSITION": 9
          },
          "indices": 11,
          "material": 2,
          "mode": 4
        }
      ]
    },
    {
      "name": "Circle.001_0",
      "primitives": [
        {
          "attributes": {
            "NORMAL": 13,
            "POSITION": 12
          },
          "indices": 14,
          "material": 1,
          "mode": 4
        }
      ]
    }
  ],
  "nodes": [
    {
      "children": [
        1
      ],
      "matrix": [
        5.980906963348389,
        0.0,
        0.0,
        0.0,
        0.0,
        1.3280281237700617e-15,
        -5.980906963348389,
        0.0,
        0.0,
        5.980906963348389,
        1.3280281237700617e-15,
        0.0,
        0.0,
        0.0,
        0.0,
        1.0
      ],
      "name": "Sketchfab_model"
    },
    {
      "children": [
        2,
        4,
        7,
        9,
        11
      ],
      "name": "Root"
    },
    {
      "children": [
        3
      ],
      "matrix": [
        -0.29086000000000006,
        0.9551700000000001,
        -0.05519000000000001,
        0.0,
        -0.7711,
        -0.19988000000000003,
        0.6045200000000001,
        0.0,
        0.5663900000000001,
        0.21839000000000003,
        0.7946700000000001,
        0.0,
        -0.43635000000000007,
        0.6895600000000001,
        0.24011000000000002,
        1.0
      ],
      "name": "Lamp"
    },
    {
      "name": "Lamp"
    },
    {
      "children": [
        5,
        6
      ],
      "matrix": [
        1.0,
        0.0,
        0.0,
        0.0,
        0.0,
        -1.0,
        -0.0,
        0.0,
        0.0,
        0.0,
        -1.0,
        0.0,
        0.0,
        0.0,
        0.0,
        1.0
      ],
      "name": "Plane"
    },
    {
      "mesh": 0,
      "name": "Plane_0"
    },
    {
      "mesh": 1,
      "name": "Plane_0"
    },
    {
      "children": [
        8
      ],
      "matrix": [
        1.0,
        0.0,
        0.0,
        0.0,
        0.0,
        -1.0,
        -0.0,
        0.0,
        0.0,
        0.0,
        -1.0,
        0.0,
        0.0,
        0.0,
        0.0,
        1.0
      ],
      "name": "Circle"
    },
    {
      "mesh": 2,
      "name": "Circle_0"
    },
    {
      "children": [
        10
      ],
      "matrix": [
        0.0,
        1.0,
        0.0,
        0.0,
        -1.0,
        0.0,
        0.0,
        0.0,
        -0.0,
        -0.0,
        1.0,
        0.0,
        0.0,
        0.0,
        0.0,
        1.0
      ],
      "name": "Plane.002"
    },
    {
      "mesh": 3,
      "name": "Plane.002_0"
    },
    {
      "children": [
        12
      ],
      "matrix": [
        1.0,
        0.0,
        0.0,
        0.0,
        0.0,
        -1.0,
        -0.0,
        0.0,
        0.0,
        0.0,
        -1.0,
        0.0,
        0.0,
        0.0,
        0.0,
        1.0
      ],
      "name": "Circle.001"
    },
    {
      "mesh": 4,
      "name": "Circle.001_0"
    }
  ],
  "scene": 0,
  "scenes": [
    {
      "name": "Sketchfab_Scene",
      "nodes": [
        0
      ]
    }
  ]
}
